<svg xmlns="http://www.w3.org/2000/svg" width="56" height="57.559" viewBox="0 0 56 57.559"><defs><style>.a{fill:#efd9b3;}</style></defs><path class="a" d="M34.736,63.574a.891.891,0,0,1-.891-.891V51.1a.891.891,0,0,1,.891-.891H46.315a.891.891,0,0,1,.891.891V62.684a.891.891,0,0,1-.891.891Zm-16.923,0a.891.891,0,0,1-.891-.891V51.1a.891.891,0,0,1,.891-.891H29.392a.891.891,0,0,1,.891.891V62.684a.891.891,0,0,1-.891.891Zm-16.923,0A.891.891,0,0,1,0,62.684V51.1a.891.891,0,0,1,.891-.891H12.469a.891.891,0,0,1,.891.891V62.684a.891.891,0,0,1-.891.891ZM17.813,46.651a.891.891,0,0,1-.891-.891V34.182a.891.891,0,0,1,.891-.891H29.392a.891.891,0,0,1,.891.891V45.761a.891.891,0,0,1-.891.891Zm-16.923,0A.891.891,0,0,1,0,45.761V34.182a.891.891,0,0,1,.891-.891H12.469a.891.891,0,0,1,.891.891V45.761a.891.891,0,0,1-.891.891ZM46.364,42.5,35.957,37.424a.891.891,0,0,1-.41-1.191l5.077-10.407a.891.891,0,0,1,1.191-.41l10.407,5.077a.891.891,0,0,1,.41,1.191L47.555,42.091A.891.891,0,0,1,46.364,42.5ZM.891,29.729A.891.891,0,0,1,0,28.838V17.259a.891.891,0,0,1,.891-.891H12.469a.891.891,0,0,1,.891.891V28.838a.891.891,0,0,1-.891.891Zm26.835-1.786L17.7,22.154a.891.891,0,0,1-.326-1.217L23.162,10.91a.891.891,0,0,1,1.217-.326l10.027,5.789a.891.891,0,0,1,.326,1.217L28.943,27.617a.891.891,0,0,1-1.217.326Zm19.706-4.082-9.124-7.129a.891.891,0,0,1-.153-1.25l7.129-9.124a.891.891,0,0,1,1.25-.153l9.124,7.129a.891.891,0,0,1,.153,1.25l-7.129,9.124a.891.891,0,0,1-1.25.153Z" transform="translate(0 -6.015)"/></svg>