<svg xmlns="http://www.w3.org/2000/svg" width="70" height="49.656" viewBox="0 0 70 49.656"><defs><style>.a{fill:#fb943a;}</style></defs><path class="a" d="M10.41,100.906l-.158-.157a35.059,35.059,0,0,1-7.5-11.125,34.841,34.841,0,0,1-2.039-6.57,35.344,35.344,0,0,1,0-14.107A34.806,34.806,0,0,1,5.977,56.432a35.264,35.264,0,0,1,4.274-5.18h0L14.505,55.5a28.954,28.954,0,0,0,.157,41.152l-4.252,4.252h0Zm49.325-.143-4.252-4.252a28.953,28.953,0,0,0,.156-40.864l4.252-4.252A35.055,35.055,0,0,1,67.25,62.377a34.827,34.827,0,0,1,2.039,6.57,35.344,35.344,0,0,1,0,14.107,34.805,34.805,0,0,1-5.266,12.515,35.25,35.25,0,0,1-4.274,5.18l-.007.007-.007.007ZM20.309,91.006l-.159-.157a21.035,21.035,0,0,1-4.5-6.675,20.971,20.971,0,0,1,1.936-19.916,21.13,21.13,0,0,1,2.564-3.108l0,0L24.4,65.4a14.976,14.976,0,0,0,.157,21.362L20.31,91.006Zm29.526-.143-4.247-4.247a14.976,14.976,0,0,0,.155-21.074l4.248-4.248a21.031,21.031,0,0,1,4.359,6.532,20.971,20.971,0,0,1-1.936,19.916,21.13,21.13,0,0,1-2.564,3.108l-.009.009-.005.005ZM29,76a6,6,0,1,1,6,6A6,6,0,0,1,29,76Z" transform="translate(0 -51.251)"/></svg>