<svg xmlns="http://www.w3.org/2000/svg" width="57.001" height="58.999" viewBox="0 0 57.001 58.999"><defs><style>.a{fill:#efd9b3;}</style></defs><path class="a" d="M-87,3021.5v-12a4.5,4.5,0,0,1,4.5-4.5,4.5,4.5,0,0,1,4.5,4.5v12a4.5,4.5,0,0,1-4.5,4.5A4.5,4.5,0,0,1-87,3021.5Zm21-3.5h-9v-5h9v5h0Zm-57,0v-5h33v5h-33Zm12-15.5v-12a4.5,4.5,0,0,1,4.5-4.5,4.5,4.5,0,0,1,4.5,4.5v12a4.5,4.5,0,0,1-4.5,4.5A4.5,4.5,0,0,1-111,3002.5Zm12-3.5v-5h33v5Zm-24,0v-5h9v5Zm40-11a4,4,0,0,1-4-4v-13a4,4,0,0,1,4-4h1a4,4,0,0,1,4,4v13a4,4,0,0,1-4,4Zm17-8h-9v-5h9v5h0Zm-57,0v-5h33v5h-33Z" transform="translate(123 -2967)"/></svg>