<svg xmlns="http://www.w3.org/2000/svg" width="54" height="49" viewBox="0 0 54 49"><defs><style>.a{fill:#ffe44d;}</style></defs><path class="a" d="M35.059,49H6.013a3.92,3.92,0,1,1,0-7.84h29.15c5.771,0,10.465-4.4,10.465-9.8s-4.694-9.8-10.465-9.8H18.99a3.92,3.92,0,1,1,0-7.84H36.266a3.92,3.92,0,0,1,.86.095,19.259,19.259,0,0,1,11.993,5.7,16.841,16.841,0,0,1-.636,24.322A19.376,19.376,0,0,1,35.163,49ZM18.837,35.28h-1.1a3.926,3.926,0,0,1-.86-.095,19.264,19.264,0,0,1-11.992-5.7A16.839,16.839,0,0,1,5.482,5.2,19.372,19.372,0,0,1,18.73,0H47.987a3.92,3.92,0,1,1,0,7.84H18.837c-5.771,0-10.465,4.4-10.465,9.8s4.694,9.8,10.465,9.8H35.01a3.92,3.92,0,1,1,0,7.84Z"/></svg>